<svg xmlns="http://www.w3.org/2000/svg" viewBox="0 0 900 420" width="900" height="420">
  <defs>
    <style>
      text { font-family: -apple-system, 'Segoe UI', sans-serif; }
    </style>
  </defs>

  <!-- Background -->
  <rect width="900" height="420" rx="8" fill="#0F172A"/>

  <!-- Left panel: 1,500 GameObjects -->
  <rect x="30" y="30" width="400" height="360" rx="6" fill="#1E293B" stroke="#374151" stroke-width="1"/>
  <text x="230" y="62" text-anchor="middle" fill="#E5E7EB" font-size="16" font-weight="bold">1,500 GameObjects</text>

  <!-- Dense grid of tiny orange squares (6x10 representative sample) -->
  <g opacity="0.85">
    <!-- Row 1 -->
    <rect x="55" y="82" width="8" height="8" fill="#F59E0B" rx="1"/>
    <rect x="70" y="82" width="8" height="8" fill="#F59E0B" rx="1"/>
    <rect x="85" y="82" width="8" height="8" fill="#F59E0B" rx="1"/>
    <rect x="100" y="82" width="8" height="8" fill="#F59E0B" rx="1"/>
    <rect x="115" y="82" width="8" height="8" fill="#F59E0B" rx="1"/>
    <rect x="130" y="82" width="8" height="8" fill="#F59E0B" rx="1"/>
    <rect x="145" y="82" width="8" height="8" fill="#F59E0B" rx="1"/>
    <rect x="160" y="82" width="8" height="8" fill="#F59E0B" rx="1"/>
    <rect x="175" y="82" width="8" height="8" fill="#F59E0B" rx="1"/>
    <rect x="190" y="82" width="8" height="8" fill="#F59E0B" rx="1"/>
    <rect x="205" y="82" width="8" height="8" fill="#F59E0B" rx="1"/>
    <rect x="220" y="82" width="8" height="8" fill="#F59E0B" rx="1"/>
    <rect x="235" y="82" width="8" height="8" fill="#F59E0B" rx="1"/>
    <rect x="250" y="82" width="8" height="8" fill="#F59E0B" rx="1"/>
    <rect x="265" y="82" width="8" height="8" fill="#F59E0B" rx="1"/>
    <rect x="280" y="82" width="8" height="8" fill="#F59E0B" rx="1"/>
    <rect x="295" y="82" width="8" height="8" fill="#F59E0B" rx="1"/>
    <rect x="310" y="82" width="8" height="8" fill="#F59E0B" rx="1"/>
    <rect x="325" y="82" width="8" height="8" fill="#F59E0B" rx="1"/>
    <rect x="340" y="82" width="8" height="8" fill="#F59E0B" rx="1"/>
    <rect x="355" y="82" width="8" height="8" fill="#F59E0B" rx="1"/>
    <rect x="370" y="82" width="8" height="8" fill="#F59E0B" rx="1"/>
    <rect x="385" y="82" width="8" height="8" fill="#F59E0B" rx="1"/>
    <rect x="400" y="82" width="8" height="8" fill="#F59E0B" rx="1"/>
    <!-- Row 2 -->
    <rect x="55" y="97" width="8" height="8" fill="#F59E0B" rx="1"/>
    <rect x="70" y="97" width="8" height="8" fill="#F59E0B" rx="1"/>
    <rect x="85" y="97" width="8" height="8" fill="#F59E0B" rx="1"/>
    <rect x="100" y="97" width="8" height="8" fill="#F59E0B" rx="1"/>
    <rect x="115" y="97" width="8" height="8" fill="#F59E0B" rx="1"/>
    <rect x="130" y="97" width="8" height="8" fill="#F59E0B" rx="1"/>
    <rect x="145" y="97" width="8" height="8" fill="#F59E0B" rx="1"/>
    <rect x="160" y="97" width="8" height="8" fill="#F59E0B" rx="1"/>
    <rect x="175" y="97" width="8" height="8" fill="#F59E0B" rx="1"/>
    <rect x="190" y="97" width="8" height="8" fill="#F59E0B" rx="1"/>
    <rect x="205" y="97" width="8" height="8" fill="#F59E0B" rx="1"/>
    <rect x="220" y="97" width="8" height="8" fill="#F59E0B" rx="1"/>
    <rect x="235" y="97" width="8" height="8" fill="#F59E0B" rx="1"/>
    <rect x="250" y="97" width="8" height="8" fill="#F59E0B" rx="1"/>
    <rect x="265" y="97" width="8" height="8" fill="#F59E0B" rx="1"/>
    <rect x="280" y="97" width="8" height="8" fill="#F59E0B" rx="1"/>
    <rect x="295" y="97" width="8" height="8" fill="#F59E0B" rx="1"/>
    <rect x="310" y="97" width="8" height="8" fill="#F59E0B" rx="1"/>
    <rect x="325" y="97" width="8" height="8" fill="#F59E0B" rx="1"/>
    <rect x="340" y="97" width="8" height="8" fill="#F59E0B" rx="1"/>
    <rect x="355" y="97" width="8" height="8" fill="#F59E0B" rx="1"/>
    <rect x="370" y="97" width="8" height="8" fill="#F59E0B" rx="1"/>
    <rect x="385" y="97" width="8" height="8" fill="#F59E0B" rx="1"/>
    <rect x="400" y="97" width="8" height="8" fill="#F59E0B" rx="1"/>
    <!-- Row 3 -->
    <rect x="55" y="112" width="8" height="8" fill="#F59E0B" rx="1"/>
    <rect x="70" y="112" width="8" height="8" fill="#F59E0B" rx="1"/>
    <rect x="85" y="112" width="8" height="8" fill="#F59E0B" rx="1"/>
    <rect x="100" y="112" width="8" height="8" fill="#F59E0B" rx="1"/>
    <rect x="115" y="112" width="8" height="8" fill="#F59E0B" rx="1"/>
    <rect x="130" y="112" width="8" height="8" fill="#F59E0B" rx="1"/>
    <rect x="145" y="112" width="8" height="8" fill="#F59E0B" rx="1"/>
    <rect x="160" y="112" width="8" height="8" fill="#F59E0B" rx="1"/>
    <rect x="175" y="112" width="8" height="8" fill="#F59E0B" rx="1"/>
    <rect x="190" y="112" width="8" height="8" fill="#F59E0B" rx="1"/>
    <rect x="205" y="112" width="8" height="8" fill="#F59E0B" rx="1"/>
    <rect x="220" y="112" width="8" height="8" fill="#F59E0B" rx="1"/>
    <rect x="235" y="112" width="8" height="8" fill="#F59E0B" rx="1"/>
    <rect x="250" y="112" width="8" height="8" fill="#F59E0B" rx="1"/>
    <rect x="265" y="112" width="8" height="8" fill="#F59E0B" rx="1"/>
    <rect x="280" y="112" width="8" height="8" fill="#F59E0B" rx="1"/>
    <rect x="295" y="112" width="8" height="8" fill="#F59E0B" rx="1"/>
    <rect x="310" y="112" width="8" height="8" fill="#F59E0B" rx="1"/>
    <rect x="325" y="112" width="8" height="8" fill="#F59E0B" rx="1"/>
    <rect x="340" y="112" width="8" height="8" fill="#F59E0B" rx="1"/>
    <rect x="355" y="112" width="8" height="8" fill="#F59E0B" rx="1"/>
    <rect x="370" y="112" width="8" height="8" fill="#F59E0B" rx="1"/>
    <rect x="385" y="112" width="8" height="8" fill="#F59E0B" rx="1"/>
    <rect x="400" y="112" width="8" height="8" fill="#F59E0B" rx="1"/>
    <!-- Row 4 -->
    <rect x="55" y="127" width="8" height="8" fill="#F59E0B" rx="1"/>
    <rect x="70" y="127" width="8" height="8" fill="#F59E0B" rx="1"/>
    <rect x="85" y="127" width="8" height="8" fill="#F59E0B" rx="1"/>
    <rect x="100" y="127" width="8" height="8" fill="#F59E0B" rx="1"/>
    <rect x="115" y="127" width="8" height="8" fill="#F59E0B" rx="1"/>
    <rect x="130" y="127" width="8" height="8" fill="#F59E0B" rx="1"/>
    <rect x="145" y="127" width="8" height="8" fill="#F59E0B" rx="1"/>
    <rect x="160" y="127" width="8" height="8" fill="#F59E0B" rx="1"/>
    <rect x="175" y="127" width="8" height="8" fill="#F59E0B" rx="1"/>
    <rect x="190" y="127" width="8" height="8" fill="#F59E0B" rx="1"/>
    <rect x="205" y="127" width="8" height="8" fill="#F59E0B" rx="1"/>
    <rect x="220" y="127" width="8" height="8" fill="#F59E0B" rx="1"/>
    <rect x="235" y="127" width="8" height="8" fill="#F59E0B" rx="1"/>
    <rect x="250" y="127" width="8" height="8" fill="#F59E0B" rx="1"/>
    <rect x="265" y="127" width="8" height="8" fill="#F59E0B" rx="1"/>
    <rect x="280" y="127" width="8" height="8" fill="#F59E0B" rx="1"/>
    <rect x="295" y="127" width="8" height="8" fill="#F59E0B" rx="1"/>
    <rect x="310" y="127" width="8" height="8" fill="#F59E0B" rx="1"/>
    <rect x="325" y="127" width="8" height="8" fill="#F59E0B" rx="1"/>
    <rect x="340" y="127" width="8" height="8" fill="#F59E0B" rx="1"/>
    <rect x="355" y="127" width="8" height="8" fill="#F59E0B" rx="1"/>
    <rect x="370" y="127" width="8" height="8" fill="#F59E0B" rx="1"/>
    <rect x="385" y="127" width="8" height="8" fill="#F59E0B" rx="1"/>
    <rect x="400" y="127" width="8" height="8" fill="#F59E0B" rx="1"/>
    <!-- Row 5 -->
    <rect x="55" y="142" width="8" height="8" fill="#F59E0B" rx="1"/>
    <rect x="70" y="142" width="8" height="8" fill="#F59E0B" rx="1"/>
    <rect x="85" y="142" width="8" height="8" fill="#F59E0B" rx="1"/>
    <rect x="100" y="142" width="8" height="8" fill="#F59E0B" rx="1"/>
    <rect x="115" y="142" width="8" height="8" fill="#F59E0B" rx="1"/>
    <rect x="130" y="142" width="8" height="8" fill="#F59E0B" rx="1"/>
    <rect x="145" y="142" width="8" height="8" fill="#F59E0B" rx="1"/>
    <rect x="160" y="142" width="8" height="8" fill="#F59E0B" rx="1"/>
    <rect x="175" y="142" width="8" height="8" fill="#F59E0B" rx="1"/>
    <rect x="190" y="142" width="8" height="8" fill="#F59E0B" rx="1"/>
    <rect x="205" y="142" width="8" height="8" fill="#F59E0B" rx="1"/>
    <rect x="220" y="142" width="8" height="8" fill="#F59E0B" rx="1"/>
    <rect x="235" y="142" width="8" height="8" fill="#F59E0B" rx="1"/>
    <rect x="250" y="142" width="8" height="8" fill="#F59E0B" rx="1"/>
    <rect x="265" y="142" width="8" height="8" fill="#F59E0B" rx="1"/>
    <rect x="280" y="142" width="8" height="8" fill="#F59E0B" rx="1"/>
    <rect x="295" y="142" width="8" height="8" fill="#F59E0B" rx="1"/>
    <rect x="310" y="142" width="8" height="8" fill="#F59E0B" rx="1"/>
    <rect x="325" y="142" width="8" height="8" fill="#F59E0B" rx="1"/>
    <rect x="340" y="142" width="8" height="8" fill="#F59E0B" rx="1"/>
    <rect x="355" y="142" width="8" height="8" fill="#F59E0B" rx="1"/>
    <rect x="370" y="142" width="8" height="8" fill="#F59E0B" rx="1"/>
    <rect x="385" y="142" width="8" height="8" fill="#F59E0B" rx="1"/>
    <rect x="400" y="142" width="8" height="8" fill="#F59E0B" rx="1"/>
    <!-- Ellipsis dots -->
    <circle cx="230" cy="168" r="2" fill="#6B7280"/>
    <circle cx="240" cy="168" r="2" fill="#6B7280"/>
    <circle cx="250" cy="168" r="2" fill="#6B7280"/>
  </g>

  <!-- Cost labels (left panel) -->
  <text x="55" y="200" fill="#EF4444" font-size="13" font-weight="bold">1,500 Transforms</text>
  <text x="55" y="222" fill="#EF4444" font-size="13" font-weight="bold">1,500 MonoBehaviours</text>
  <text x="55" y="244" fill="#EF4444" font-size="13" font-weight="bold">1,500 Update() calls</text>
  <text x="55" y="266" fill="#EF4444" font-size="13" font-weight="bold">1,500 GC roots</text>
  <text x="55" y="288" fill="#EF4444" font-size="13" font-weight="bold">1,500 draw calls</text>

  <!-- Profiler cost (left) -->
  <rect x="55" y="310" width="360" height="36" rx="4" fill="#991B1B" opacity="0.3"/>
  <text x="235" y="334" text-anchor="middle" fill="#EF4444" font-size="14" font-weight="bold">~5+ ms / frame</text>

  <!-- Big arrow in the middle -->
  <polygon points="448,195 478,175 478,185 530,185 530,175 560,195 530,215 530,205 478,205 478,215" fill="#10B981"/>
  <text x="504" y="240" text-anchor="middle" fill="#10B981" font-size="13" font-weight="bold">10x less</text>
  <text x="504" y="256" text-anchor="middle" fill="#10B981" font-size="13" font-weight="bold">overhead</text>

  <!-- Right panel: 1 DebrisField + ParticleSystem -->
  <rect x="578" y="30" width="292" height="360" rx="6" fill="#1E293B" stroke="#374151" stroke-width="1"/>
  <text x="724" y="62" text-anchor="middle" fill="#E5E7EB" font-size="16" font-weight="bold">1 DebrisField + ParticleSystem</text>

  <!-- DebrisField box -->
  <rect x="608" y="82" width="232" height="160" rx="4" fill="#1E3A5F" stroke="#3B82F6" stroke-width="2"/>
  <text x="724" y="106" text-anchor="middle" fill="#3B82F6" font-size="14" font-weight="bold">DebrisField</text>

  <!-- Array labels inside -->
  <rect x="624" y="118" width="200" height="24" rx="3" fill="#0F172A"/>
  <text x="724" y="135" text-anchor="middle" fill="#E5E7EB" font-size="12" font-family="monospace">pos[]  vel[]  acc[]</text>
  <rect x="624" y="150" width="200" height="24" rx="3" fill="#0F172A"/>
  <text x="724" y="167" text-anchor="middle" fill="#E5E7EB" font-size="12" font-family="monospace">mass[]  size[]  color[]</text>
  <rect x="624" y="182" width="200" height="24" rx="3" fill="#0F172A"/>
  <text x="724" y="199" text-anchor="middle" fill="#E5E7EB" font-size="12" font-family="monospace">alive[]</text>
  <text x="724" y="230" text-anchor="middle" fill="#6B7280" font-size="11">1 Awake, 1 FixedUpdate, 1 LateUpdate</text>

  <!-- ParticleSystem box -->
  <rect x="608" y="254" width="232" height="52" rx="4" fill="#3D1F00" stroke="#F59E0B" stroke-width="2"/>
  <text x="724" y="278" text-anchor="middle" fill="#F59E0B" font-size="14" font-weight="bold">ParticleSystem</text>
  <text x="724" y="296" text-anchor="middle" fill="#6B7280" font-size="11">renderer only, all modules off</text>

  <!-- Profiler cost (right) -->
  <rect x="608" y="320" width="232" height="36" rx="4" fill="#065F46" opacity="0.3"/>
  <text x="724" y="344" text-anchor="middle" fill="#10B981" font-size="14" font-weight="bold">~0.37 ms / frame, 1 draw call</text>
</svg>